<svg width="1080" height="1080" viewBox="0 0 1080 1080" fill="none" xmlns="http://www.w3.org/2000/svg">
<g clip-path="url(#clip0)">
<rect width="1080" height="1080" fill="#1E1736"/>
<path d="M-321.978 456.042C-326.714 350.087 -349.905 305.612 -304.499 313.745C-259.093 321.877 -138.499 324.342 -126.44 337.299C-114.38 350.257 -52.2767 405.665 94.1944 579.514C240.665 753.363 -95.4359 646.966 83.5514 779.074C262.539 911.183 234.806 649.803 262.66 651.17C290.514 652.537 304.209 562.525 324.983 518.203C345.757 473.881 301.328 419.452 203.168 319.384C105.008 219.316 93.2657 216.735 -41.6583 156.417C-176.582 96.0986 -200.14 68.9853 -287.802 106.795C-375.465 144.604 -372.584 160.565 -438.447 207.13C-504.31 253.696 -501.722 308.969 -530.112 358.487C-558.503 408.006 -555.891 385.853 -539.364 466.653C-522.837 547.453 -474.209 504.497 -441.326 572.508" stroke="white" stroke-opacity="0.13"/>
<path d="M-32.2095 445.752C-36.9457 339.797 -60.137 295.322 -14.7311 303.455C30.6748 311.588 151.269 314.052 163.328 327.009C175.388 339.967 237.491 395.375 383.962 569.224C530.433 743.073 194.332 636.676 373.319 768.784C552.307 900.893 524.574 639.513 552.428 640.88C580.282 642.247 593.977 552.236 614.751 507.913C635.525 463.591 591.096 409.162 492.936 309.094C394.776 209.026 383.034 206.445 248.11 146.127C113.186 85.8087 89.6284 58.6954 1.96594 96.5046C-85.6966 134.314 -82.8159 150.275 -148.679 196.841C-214.541 243.406 -211.954 298.679 -240.344 348.197C-268.735 397.716 -266.123 375.563 -249.596 456.363C-233.069 537.163 -184.441 494.207 -151.558 562.218" stroke="white" stroke-opacity="0.13"/>
<path d="M138.429 744.892C133.693 638.937 110.502 594.462 155.908 602.595C201.313 610.728 321.908 613.192 333.967 626.149C346.026 639.107 408.13 694.515 554.601 868.364C701.072 1042.21 364.971 935.816 543.958 1067.92C722.946 1200.03 695.213 938.653 723.067 940.02C750.921 941.387 764.615 851.376 785.39 807.053C806.164 762.731 761.734 708.302 663.574 608.234C565.415 508.166 553.672 505.585 418.748 445.267C283.825 384.949 260.267 357.835 172.605 395.645C84.9421 433.454 87.8228 449.415 21.96 495.981C-43.9028 542.546 -41.315 597.819 -69.7057 647.337C-98.0964 696.856 -95.4845 674.703 -78.9575 755.503C-62.4305 836.303 -13.8024 793.347 19.0805 861.358" stroke="white" stroke-opacity="0.13"/>
<path d="M251.501 635.144C95.108 559.695 32.4351 543.824 38.1243 516.053C43.8135 488.282 30.5594 400.261 48.0759 400.933C65.5924 401.606 139.016 396.632 376.178 417.078C613.339 437.524 502.747 608.655 673.477 573.759C844.208 538.863 460.654 364.697 458.775 344.961C456.896 325.225 321.553 247.927 252.942 199.41C184.33 150.893 109.879 143.428 -24.6895 141.98C-159.258 140.531 -161.439 147.356 -231.932 202.931C-302.425 258.506 -339.313 255.85 -270.978 349.352C-202.644 442.855 -179.389 452.605 -101.131 536.392C-22.873 620.178 58.6941 659.449 136.076 717.515C213.458 775.58 180.254 757.122 297.706 805.034C415.158 852.947 344.668 784.694 440.87 810.887" stroke="white" stroke-opacity="0.13"/>
<path d="M419.227 1085.25C338.265 1016.74 289.875 1003.54 326.692 975.744C363.509 947.953 447.251 861.141 464.952 861.096C482.653 861.051 565.503 853.128 792.58 863.771C1019.66 874.414 713.234 1048.74 931.776 1007.17C1150.32 965.59 939.689 808.353 959.616 788.844C979.544 769.334 922.802 698.13 904.395 652.774C885.988 607.417 815.865 603.038 675.748 607.074C535.631 611.111 525.759 617.973 389.831 675.992C253.903 734.012 218.003 732.876 186.186 822.886C154.369 912.897 168.037 921.627 157.457 1001.59C146.876 1081.56 189.19 1117.21 206.236 1171.69C223.281 1226.16 208.801 1209.19 279.316 1251.96C349.832 1294.73 351.352 1229.87 423.596 1251.95" stroke="white" stroke-opacity="0.13"/>
<path d="M608.551 865.64C527.588 797.127 479.199 783.927 516.015 756.136C552.832 728.344 636.574 641.533 654.276 641.488C671.977 641.443 754.827 633.519 981.903 644.163C1208.98 654.806 902.558 829.132 1121.1 787.557C1339.64 745.982 1129.01 588.744 1148.94 569.235C1168.87 549.726 1112.13 478.522 1093.72 433.166C1075.31 387.809 1005.19 383.429 865.072 387.466C724.955 391.503 715.083 398.365 579.155 456.384C443.227 514.403 407.327 513.267 375.51 603.278C343.693 693.289 357.361 702.019 346.78 781.984C336.2 861.948 378.514 897.603 395.559 952.078C412.605 1006.55 398.125 989.586 468.64 1032.36C539.155 1075.13 540.676 1010.26 612.92 1032.34" stroke="white" stroke-opacity="0.13"/>
<path d="M943.98 943.675C863.017 875.162 814.628 861.962 851.445 834.171C888.262 806.379 972.004 719.568 989.705 719.523C1007.41 719.478 1090.26 711.554 1317.33 722.198C1544.41 732.841 1237.99 907.167 1456.53 865.592C1675.07 824.017 1464.44 666.779 1484.37 647.27C1504.3 627.761 1447.56 556.557 1429.15 511.201C1410.74 465.844 1340.62 461.464 1200.5 465.501C1060.38 469.538 1050.51 476.4 914.584 534.419C778.656 592.438 742.756 591.302 710.939 681.313C679.122 771.324 692.79 780.054 682.21 860.019C671.629 939.983 713.943 975.638 730.989 1030.11C748.034 1084.59 733.554 1067.62 804.069 1110.39C874.585 1153.16 876.105 1088.3 948.349 1110.38" stroke="white" stroke-opacity="0.13"/>
<path d="M940.276 786.143C778.658 849.635 724.432 884.839 707.92 861.796C691.408 838.753 617.818 788.675 630.212 776.28C642.607 763.884 688.843 706.629 864.977 546.504C1041.11 386.378 1091.54 583.795 1181.93 434.812C1272.33 285.83 883.937 448.931 868.18 436.9C852.422 424.87 703.749 471.66 621.534 489.041C539.319 506.421 483.258 555.977 390.767 653.733C298.276 751.489 301.802 757.726 294.686 847.209C287.569 936.692 260.558 961.953 375.593 975.34C490.628 988.728 513.583 978.289 628.231 977.793C742.879 977.297 827.113 944.129 922.293 926.801C1017.47 909.473 981.37 921.295 1096.33 867.667C1211.28 814.04 1113.31 819.389 1197.89 766.597" stroke="white" stroke-opacity="0.13"/>
<path d="M479.264 453.396C479.264 442.627 479.395 433.039 479.658 424.634C479.921 415.966 480.052 406.116 480.052 395.084H479.264C473.485 395.084 465.211 395.215 454.442 395.478C443.935 395.741 435.793 395.872 430.014 395.872H347.274C345.435 386.941 344.122 378.142 343.334 369.474C342.809 360.806 342.546 353.057 342.546 346.228C342.546 339.136 342.809 331.256 343.334 322.588C344.122 313.657 345.435 304.727 347.274 295.796H733.394C735.233 302.1 736.677 309.455 737.728 317.86C738.779 326.265 739.304 334.277 739.304 341.894C739.304 361.594 734.182 375.515 723.938 383.658C713.694 391.801 697.671 395.872 675.87 395.872H649.078C643.299 395.872 635.025 395.741 624.256 395.478C613.749 395.215 605.607 395.084 599.828 395.084H599.04C599.04 406.116 599.171 415.966 599.434 424.634C599.697 433.039 599.828 442.627 599.828 453.396V834C589.584 835.839 579.077 837.021 568.308 837.546C557.539 838.071 547.951 838.334 539.546 838.334C531.141 838.334 521.553 838.071 510.784 837.546C500.015 837.021 489.508 835.839 479.264 834V453.396Z" fill="white"/>
<path d="M399.227 436.248C318.265 367.735 269.875 354.535 306.692 326.744C343.509 298.953 427.251 212.141 444.952 212.096C462.653 212.051 545.503 204.128 772.58 214.771C999.657 225.414 693.234 399.741 911.776 358.165C1130.32 316.59 919.689 159.353 939.616 139.844C959.544 120.335 902.802 49.1306 884.395 3.77409C865.988 -41.5824 795.865 -45.9624 655.748 -41.9255C515.631 -37.8886 505.759 -31.0268 369.831 26.9925C233.903 85.0118 198.003 83.8758 166.186 173.886C134.369 263.897 148.037 272.628 137.457 352.592C126.876 432.557 169.19 468.211 186.236 522.687C203.281 577.162 188.801 560.195 259.316 602.965C329.832 645.735 331.352 580.869 403.596 602.949" stroke="white" stroke-opacity="0.13"/>
<path d="M588.551 216.64C507.588 148.127 459.199 134.927 496.015 107.136C532.832 79.3445 616.574 -7.46728 634.276 -7.51219C651.977 -7.55711 734.827 -15.4806 961.903 -4.83748C1188.98 5.80565 882.558 180.132 1101.1 138.557C1319.64 96.9818 1109.01 -60.2556 1128.94 -79.7647C1148.87 -99.2738 1092.13 -170.478 1073.72 -215.834C1055.31 -261.191 985.188 -265.571 845.072 -261.534C704.955 -257.497 695.083 -250.635 559.155 -192.616C423.227 -134.597 387.327 -135.733 355.51 -45.7219C323.693 44.2888 337.361 53.0192 326.78 132.984C316.2 212.948 358.514 248.603 375.559 303.078C392.605 357.554 378.125 340.586 448.64 383.357C519.155 426.127 520.676 361.261 592.92 383.341" stroke="white" stroke-opacity="0.13"/>
<path d="M923.98 294.675C843.017 226.162 794.628 212.962 831.445 185.171C868.262 157.38 952.004 70.5679 969.705 70.523C987.406 70.478 1070.26 62.5545 1297.33 73.1977C1524.41 83.8408 1217.99 258.167 1436.53 216.592C1655.07 175.017 1444.44 17.7795 1464.37 -1.72956C1484.3 -21.2387 1427.56 -92.4426 1409.15 -137.799C1390.74 -183.156 1320.62 -187.536 1180.5 -183.499C1040.38 -179.462 1030.51 -172.6 894.584 -114.581C758.656 -56.5614 722.756 -57.6974 690.939 32.3133C659.122 122.324 672.79 131.054 662.21 211.019C651.629 290.984 693.943 326.638 710.989 381.114C728.034 435.589 713.554 418.622 784.069 461.392C854.585 504.162 856.105 439.296 928.349 461.376" stroke="white" stroke-opacity="0.13"/>
<path d="M920.276 137.143C758.658 200.635 704.432 235.839 687.92 212.796C671.408 189.753 597.818 139.675 610.212 127.28C622.607 114.884 668.843 57.6292 844.977 -102.496C1021.11 -262.622 1071.54 -65.2055 1161.93 -214.188C1252.33 -363.17 863.937 -200.069 848.18 -212.1C832.422 -224.13 683.749 -177.34 601.534 -159.959C519.319 -142.579 463.258 -93.0229 370.767 4.73298C278.276 102.489 281.802 108.726 274.686 198.209C267.569 287.692 240.558 312.953 355.593 326.34C470.628 339.728 493.583 329.289 608.231 328.793C722.879 328.297 807.113 295.129 902.293 277.801C997.473 260.473 961.37 272.295 1076.33 218.667C1191.28 165.04 1093.31 170.389 1177.89 117.597" stroke="white" stroke-opacity="0.13"/>
</g>
<defs>
<clipPath id="clip0">
<rect width="1080" height="1080" fill="white"/>
</clipPath>
</defs>
</svg>
